<?xml version="1.0" encoding="UTF-8" standalone="no"?>
<!-- Created with Inkscape (http://www.inkscape.org/) -->

<svg
   width="161.34428mm"
   height="163.64745mm"
   viewBox="0 0 161.34428 163.64745"
   version="1.1"
   id="svg3883"
   xml:space="preserve"
   inkscape:version="1.2.1 (9c6d41e410, 2022-07-14)"
   sodipodi:docname="dessin.svg"
   xmlns:inkscape="http://www.inkscape.org/namespaces/inkscape"
   xmlns:sodipodi="http://sodipodi.sourceforge.net/DTD/sodipodi-0.dtd"
   xmlns="http://www.w3.org/2000/svg"
   xmlns:svg="http://www.w3.org/2000/svg"><sodipodi:namedview
     id="namedview3885"
     pagecolor="#ffffff"
     bordercolor="#000000"
     borderopacity="0.25"
     inkscape:showpageshadow="2"
     inkscape:pageopacity="0.0"
     inkscape:pagecheckerboard="0"
     inkscape:deskcolor="#d1d1d1"
     inkscape:document-units="mm"
     showgrid="false"
     inkscape:zoom="1"
     inkscape:cx="236.5"
     inkscape:cy="-2"
     inkscape:window-width="1920"
     inkscape:window-height="1017"
     inkscape:window-x="-8"
     inkscape:window-y="-8"
     inkscape:window-maximized="1"
     inkscape:current-layer="layer1" /><defs
     id="defs3880" /><g
     inkscape:label="Calque 1"
     inkscape:groupmode="layer"
     id="layer1"
     transform="translate(-29.989821,-10.407442)"><g
       id="g3933"
       transform="translate(-0.35483876)"><path
         style="fill:#b6213e;stroke-width:0.352778"
         d="m 72.271108,147.11971 c -0.8263,0.0333 -2.230658,-1.54484 0.805041,-1.87034 1.212673,-0.13003 1.891225,-0.31686 1.891225,-0.49182 0,-0.17498 2.762219,-0.38087 3.914935,-0.38087 1.152715,0 2.695777,-0.22148 2.815693,-0.41551 5.205359,0.0401 9.836649,-1.27369 14.673258,-1.28604 4.52507,-0.003 2.51062,-0.51492 2.951885,-1.38714 0.618303,-1.22212 0.559181,-2.81304 -0.246359,-6.62932 -0.66712,-3.16052 -0.734483,-8.34686 -0.121299,-9.33902 0.125243,-0.20265 0.06185,-0.26594 -0.140885,-0.14064 -0.504592,0.31185 -0.911998,-2.03731 -0.491977,-2.83682 0.692736,-1.31862 1.131468,-3.62767 0.806997,-4.24724 -0.178425,-0.3407 -0.269505,-1.56413 -0.202403,-2.71873 0.203334,-3.49854 0.220151,-3.55641 2.750431,-9.46617 0.31435,-0.73419 0.57397,-1.84544 0.57694,-2.46944 0.003,-0.62401 0.1767,-1.37269 0.38606,-1.66373 0.3213,-0.44666 0.34969,-0.43291 0.18206,0.0882 -0.10923,0.33955 -0.0466,0.61736 0.13915,0.61736 0.18577,0 0.30586,0.38543 0.26687,0.85651 -0.039,0.47108 -0.22293,0.76254 -0.40877,0.64768 -0.19275,-0.11912 -0.24112,0.0433 -0.11262,0.37822 0.12389,0.32287 0.0715,0.58703 -0.11644,0.58703 -0.18794,0 -0.34171,0.16812 -0.34171,0.3736 0,0.20548 0.14346,0.28494 0.3188,0.17657 0.35308,-0.21822 -0.93689,3.62999 -1.42441,4.24926 -0.6512,0.82717 -1.09838,6.06602 -0.67016,7.85103 0.33594,1.40037 0.31023,2.09804 -0.14159,3.84167 -0.644311,2.48646 -0.713861,4.53292 -0.16557,4.87177 0.2446,0.15118 0.2939,0.70927 0.13426,1.52013 -0.371895,1.88902 -0.2708,5.54527 0.19211,6.94791 0.42007,1.27282 0.15874,6.3527 -0.36182,7.03334 -0.396072,0.51787 0.2434,1.94028 0.87229,1.94028 0.29729,0 0.54053,0.23812 0.54053,0.52916 0,0.77593 0.59286,0.64546 0.80816,-0.17784 0.12334,-0.47165 0.37191,-0.63524 0.7467,-0.49143 0.31735,0.12179 0.56181,0.0353 0.56181,-0.1987 0,-0.24914 0.27217,-0.32791 0.68277,-0.19759 0.50015,0.15874 1.28091,-1.83373 2.12657,-1.27584 l 1.8829,-0.0498 3.17072,0.0762 c 1.47166,0.0354 1.77688,-0.16529 2.67996,0.0762 1.59599,0.42686 1.11478,0.40906 2.41101,-0.63561 1.95824,-1.57821 2.21824,-3.00881 1.01073,-5.56127 -0.89609,-1.89418 -0.93749,-2.20235 -0.71079,-5.2907 0.15876,-2.16284 0.10195,-3.69985 -0.16688,-4.51439 -0.22417,-0.67927 -0.46867,-1.5361 -0.54331,-1.90408 -0.0746,-0.36797 -0.24574,-0.94685 -0.38022,-1.2864 -0.13447,-0.33954 -0.14421,-0.61736 -0.0216,-0.61736 0.1786,0 0.75202,1.11625 1.08734,2.11667 0.0325,0.097 0.26453,0.65264 0.51558,1.23472 0.25106,0.58208 0.56872,3.00123 0.70592,5.37589 0.18255,3.1596 0.3986,4.48419 0.80555,4.93889 0.30585,0.34173 0.66206,1.33852 0.79159,2.21508 0.22413,1.51677 0.17144,1.65204 -1.09104,2.80087 -0.74504,0.67797 -1.14382,1.26803 -0.90971,1.34607 0.22926,0.0764 0.42188,0.40353 0.42805,0.7269 0.006,0.32338 -0.0328,1.29935 0.21998,1.63214 0.36144,0.47579 0.8038,0.0744 1.14684,-0.2627 0.23993,-0.23578 0.40611,-0.26995 0.36928,-0.0759 -0.16366,0.86204 0.10993,0.92024 0.45613,0.70625 0.20726,-0.12809 0.22888,0.23504 0.12473,-0.0364 -0.2896,-0.75468 0.13692,-1.53134 0.71842,-1.3082 0.44025,0.16894 0.48296,-0.19593 0.28222,-2.41111 -0.18225,-2.01126 -0.0994,-3.01318 0.36123,-4.36648 0.32877,-0.96596 0.61929,-2.03411 0.6456,-2.37366 0.0263,-0.33955 0.19224,-0.61736 0.36873,-0.61736 0.1765,0 0.15014,-0.20576 -0.0586,-0.45723 -0.20871,-0.25148 -0.35237,-0.81706 -0.31924,-1.25686 0.0562,-0.74658 0.0908,-0.75784 0.52093,-0.16959 0.45666,0.62451 0.41911,1.88998 -0.14486,4.88229 -0.14628,0.77611 -0.27203,2.20486 -0.27944,3.175 -0.0108,1.41472 0.0913,1.72897 0.51568,1.5875 0.92203,-0.30734 11.99759,-0.20875 15.66284,0.20453 5.2456,0.59155 4.0376,2.1905 1.00488,2.40582 -0.64534,0.0458 -2.81971,-0.0421 -4.37193,0.18798 -1.55222,0.23007 -3.08237,-0.0626 -6.54366,-0.037 -4.55797,0.0337 -6.24177,0.41711 -6.43607,0.73149 -0.76183,1.23267 -3.54061,1.3857 -4.31891,0.44791 -0.25718,-0.30988 -0.79665,-0.73881 -0.8155,-1.48985 -0.037,-1.47633 -0.34902,-2.17649 -0.43879,-0.98475 -0.0704,0.93499 -0.18917,1.03905 -1.19951,1.05116 -0.45849,0.006 -2.56709,0.1059 -4.99244,0.29978 -4.04227,0.32314 -4.02452,-1.52092 -4.61742,-0.73873 -0.45086,0.59482 -1.24498,1.22965 -2.04419,1.22965 -0.63058,0 -1.36969,0.96867 -1.48915,0.84917 -0.11946,-0.11946 -0.70625,-0.14226 -1.53398,-0.20399 -0.84787,-0.0632 -1.032291,-0.80974 -1.281693,-1.10384 -9.010659,0.47637 -18.122088,2.25641 -27.376439,2.6296 z m 71.605862,-3.36227 c 0,-0.19403 0.15875,-0.35278 0.35278,-0.35278 0.19402,0 0.35277,0.15875 0.35277,0.35278 0,0.19402 -0.15875,0.35277 -0.35277,0.35277 -0.19403,0 -0.35278,-0.15875 -0.35278,-0.35277 z m -40.37367,-2.36049 -1.00299,-1.257 0.63089,-3.43843 c 0.36695,-1.99992 0.54985,-4.15742 0.43718,-5.157 -0.19594,-1.7384 0.31911,-3.98074 1.33985,-5.83318 0.28378,-0.51501 0.52804,-1.30876 0.5428,-1.76389 0.0369,-1.13864 0.82397,-3.22778 1.27231,-3.37723 0.60029,-0.2001 0.25265,1.93785 -0.90218,5.54833 -0.7276,2.27476 -1.11939,4.31469 -1.21958,6.35 -0.0812,1.64923 -0.34567,3.89925 -0.58772,5.00005 -0.40941,1.86186 -0.38788,2.07477 0.30872,3.05307 1.41084,1.98133 0.68338,2.75851 -0.81928,0.87528 z m 17.03159,-18.62979 c -0.11813,-0.19403 -0.1735,-0.74965 -0.12304,-1.23472 0.0505,-0.48507 0.112,-1.27088 0.13676,-1.74625 0.0314,-0.60289 0.15691,-0.75242 0.41493,-0.4944 0.23987,0.23987 0.2673,0.97777 0.078,2.09903 -0.16054,0.95101 -0.38854,1.57037 -0.50667,1.37634 z m -5.36335,-2.02847 c -0.31501,-1.17545 -0.26708,-1.74498 0.12639,-1.50181 0.19997,0.1236 0.25911,-0.018 0.13864,-0.33195 -0.11555,-0.30112 -0.0516,-0.54749 0.14219,-0.54749 0.47559,0 0.80406,1.42519 0.55126,2.39188 -0.26299,1.00567 -0.68738,1.00096 -0.95848,-0.0106 z m -7.80707,-2.35841 c -1.55048,-1.106 -1.83296,-1.85851 -1.89854,-5.05749 -0.0341,-1.66639 0.13196,-2.29852 0.91502,-3.4818 0.52622,-0.79516 1.46083,-1.78395 2.07692,-2.19729 0.61608,-0.41335 1.69799,-1.21024 2.40423,-1.77087 1.53349,-1.21733 1.98155,-1.01176 0.95057,0.43612 -0.73721,1.03532 -0.98919,2.17418 -0.47945,2.16696 0.14552,-0.002 1.0507,-0.62662 2.01152,-1.3879 0.96081,-0.76129 1.88237,-1.10158 2.02847,-1.21016 0.0674,-0.0501 0.24041,-0.0891 0.28154,-0.25839 0.0562,-0.23109 0.0956,-0.33682 0.21237,-0.22002 0.1168,0.11681 -0.0419,0.57546 -0.35278,1.01924 -0.67689,0.96639 -0.72969,1.49818 -0.12418,1.25062 0.24254,-0.0992 0.71879,-0.29188 1.05834,-0.42826 0.37164,-0.14928 0.61736,-0.0881 0.61736,0.15362 0,0.22087 -0.27782,0.49964 -0.61736,0.61947 -0.69984,0.247 -2.20487,1.52824 -2.20487,1.87704 0,0.31141 2.19584,-0.012 2.6783,-0.39444 0.21188,-0.16797 0.48969,-0.20094 0.61736,-0.0733 0.48904,0.48905 0.19677,1.2041 -0.64982,1.58983 -1.05525,0.48081 -1.16867,1.34693 -0.17639,1.34693 0.38805,0 0.70555,-0.15468 0.70555,-0.34372 0,-0.39459 2.09652,-1.55792 2.35029,-1.30415 0.31129,0.31129 -0.65122,1.46468 -2.03475,2.43826 -0.75563,0.53174 -1.37387,1.20642 -1.37387,1.49931 0,0.29288 -0.15294,0.53252 -0.33987,0.53252 -0.18693,0 -1.3581,0.9525 -2.6026,2.11666 -2.68039,2.50738 -3.77896,2.70359 -6.05336,1.08118 z m 11.83633,0.0213 c -0.229,-0.55287 -0.36649,-1.69885 -0.30552,-2.5466 0.0946,-1.31576 0.25186,-1.59069 1.07411,-1.8782 1.14906,-0.40178 1.62619,-0.0555 1.09516,0.79481 -0.21138,0.33847 -0.49805,1.44232 -0.63706,2.45301 -0.30152,2.19236 -0.6626,2.53881 -1.22669,1.17698 z m 1.04006,-7.96083 c 0,-0.30249 0.15875,-0.54999 0.35277,-0.54999 0.19403,0 0.35278,0.14938 0.35278,0.33196 0,0.18257 -0.15875,0.43007 -0.35278,0.54999 -0.19402,0.11991 -0.35277,-0.0295 -0.35277,-0.33196 z M 101.9213,96.398443 c 0.49803,-1.736548 0.39688,-3.239851 -0.34457,-5.120932 -0.48044,-1.218869 -0.7071,-2.835656 -0.79375,-5.661822 -0.0667,-2.17568 -0.0684,-3.795085 -0.004,-3.598679 0.0647,0.196402 0.3425,0.357095 0.61737,0.357095 0.27487,0 0.49977,0.16812 0.49977,0.373599 0,0.205479 0.11906,0.301572 0.26458,0.21354 0.14552,-0.08803 0.28213,0.974164 0.30357,2.360429 0.068,4.39686 1.1084,6.599145 2.56967,5.43941 0.31149,-0.247213 0.93705,-0.657709 1.39015,-0.912209 0.73699,-0.413971 0.80992,-0.39538 0.69204,0.176388 -0.0725,0.351515 -0.37079,0.622526 -0.66292,0.602241 -0.30938,-0.02148 -0.55857,0.294506 -0.59683,0.756808 -0.056,0.677164 0.0961,0.786165 1.03624,0.742438 0.66067,-0.03073 1.17062,0.144988 1.27348,0.438824 0.0953,0.27215 0.0121,0.391551 -0.18695,0.268513 -0.3237,-0.20006 -1.42862,0.654953 -3.96637,3.069283 -0.48507,0.461479 -1.22793,1.0189 -1.65081,1.238712 -0.73877,0.384016 -0.75603,0.354916 -0.44097,-0.743638 z m 12.51915,-31.75142 c 0.17193,-2.658138 0.0751,-3.780596 -0.52204,-6.053652 -0.84211,-3.205367 -0.98052,-8.316433 -0.31277,-11.54938 0.40916,-1.980946 0.38976,-2.095944 -0.72915,-4.322635 -0.79805,-1.588149 -1.30407,-2.228233 -1.65506,-2.093546 -0.27807,0.106705 -0.50557,0.320908 -0.50557,0.476014 0,0.155102 -0.27861,0.209148 -0.61914,0.1201 -0.34051,-0.08905 -0.95862,0.154379 -1.37355,0.540953 -0.41494,0.38657 -0.87616,0.593351 -1.02493,0.459514 -0.14878,-0.133837 -0.17435,-0.07409 -0.0568,0.132764 0.19559,0.344283 -0.0861,1.328656 -1.05226,3.677588 -0.20573,0.500133 -0.2401,1.260048 -0.0798,1.763889 0.15491,0.486858 0.46964,1.456507 0.69939,2.154777 0.3402,1.033939 0.31157,1.692896 -0.15425,3.550317 -0.31459,1.254404 -0.57199,2.618412 -0.57199,3.031126 0,0.412715 -0.14043,0.837184 -0.31207,0.943265 -0.17164,0.106076 -0.4183,0.948884 -0.54813,1.8729 -0.35786,2.546876 -0.89662,3.973089 -1.50086,3.973089 -0.45384,0 -0.5021,-0.331371 -0.2954,-2.028472 0.13588,-1.11566 0.53337,-2.683369 0.8833,-3.483793 1.09121,-2.495995 1.53515,-6.071207 0.95824,-7.716901 -1.3812,-3.93997 1.3444,-9.816524 4.87187,-10.504039 0.58208,-0.11345 1.31719,-0.306475 1.63358,-0.428949 0.76138,-0.294727 1.84343,1.47224 2.53537,4.140175 0.45585,1.757676 0.45989,2.244989 0.0304,3.672039 -0.63618,2.113865 -0.63767,7.604749 -0.003,9.847717 0.27089,0.956846 0.50312,1.977848 0.51607,2.26889 0.0129,0.291042 0.15028,2.241878 0.3052,4.335187 0.28002,3.783951 0.14536,4.484257 -0.86231,4.484257 -0.36743,0 -0.42118,-0.688721 -0.25467,-3.263194 z m -4.84466,0.852547 c -0.0339,-0.420394 -0.10932,-1.28029 -0.16747,-1.91088 -0.38729,-4.199506 0.17299,-18.755497 0.80189,-20.833309 0.34864,-1.151837 1.01844,-0.411208 0.92472,1.022498 -0.0495,0.757996 -0.28767,6.009023 -0.52916,11.668954 -0.2415,5.659931 -0.55814,10.409202 -0.70366,10.553936 -0.14552,0.144734 -0.29237,-0.08081 -0.32632,-0.501199 z"
         id="path3937"
         sodipodi:nodetypes="ssssccsssssssscssssssssssssssssssssssscsssssscssssssssscsscsssssssscsssscssssscscsssssccssssssssssssssssssssssssscssssscssssscssssccssssscssssssssccssssssscsssccscsssssscscscsssccccssssssscsssssssssssssssccsscccsscsscs" /><path
         style="fill:#d0ccd0"
         d="m 110.0103,173.86413 c -0.29104,-0.0971 -0.73445,-0.24093 -0.98535,-0.31969 -0.35494,-0.11142 -0.36643,-0.31092 -0.0518,-0.89886 0.51455,-0.96144 -0.028,-1.35853 -1.86658,-1.36608 -1.10142,-0.005 -1.35126,0.13435 -1.53114,0.85102 -0.24793,0.98785 -0.56994,1.14579 -2.26285,1.10992 -1.55968,-0.0331 -1.7457,-0.76787 -0.54718,-2.16151 0.4917,-0.57175 0.8942,-1.22476 0.89444,-1.45113 2.4e-4,-0.22636 0.12644,-0.46448 0.28045,-0.52916 0.37385,-0.157 1.83665,-3.62307 1.83665,-4.3519 0,-0.44095 0.18583,-0.51326 0.79375,-0.30888 0.43656,0.14677 1.48233,0.27653 2.32393,0.28836 1.51234,0.0212 1.53995,0.0441 2.36708,1.96177 0.4603,1.06715 0.84328,2.21809 0.85107,2.55764 0.008,0.33955 0.17292,0.61736 0.36695,0.61736 0.19402,0 0.3563,0.19844 0.36062,0.44097 0.004,0.24254 0.31828,0.83785 0.69771,1.32292 1.07177,1.37018 0.90059,1.99211 -0.61736,2.24301 -1.50214,0.24829 -2.15256,0.247 -2.91042,-0.006 z m 4.73404,-1.43416 c -0.52355,-0.52356 -0.69362,-1.86286 -0.23612,-1.85946 0.14552,10e-4 0.87029,0.17017 1.61059,0.37574 2.11739,0.58797 4.69129,-0.30391 2.79913,-0.96993 -1.5524,-0.54643 -3.78388,-1.64196 -4.20762,-2.06569 -0.65888,-0.65888 -0.61203,-2.63375 0.0625,-2.63375 0.29104,0 0.52917,-0.2284 0.52917,-0.50755 0,-0.60163 2.22808,-1.01025 4.58611,-0.84107 1.34593,0.0966 1.60496,0.23707 1.70228,0.92332 0.11004,0.77594 0.0426,0.79985 -1.63049,0.57791 -1.16824,-0.15497 -1.82858,-0.0967 -1.99724,0.17617 -0.33766,0.54634 0.44015,1.43511 1.25595,1.43511 1.38382,0 3.49553,1.12706 3.70957,1.97987 0.3913,1.55907 -0.12108,2.48305 -1.81971,3.28151 -1.88467,0.88589 -5.53275,0.95916 -6.3641,0.12782 z m -16.04189,-0.54106 c -0.663014,-0.44681 -1.380638,-1.16371 -1.594718,-1.59311 -0.214079,-0.4294 -0.652956,-1.07213 -0.975278,-1.4283 -0.322323,-0.35616 -0.586042,-0.8089 -0.586042,-1.00608 0,-0.19719 -0.291934,-0.62272 -0.648741,-0.94562 -0.616189,-0.55765 -0.669286,-0.51852 -1.058333,0.78 -0.225277,0.75191 -0.409593,1.80615 -0.409593,2.34276 0,0.93792 -0.05571,0.96819 -1.440247,0.78249 -0.792134,-0.10625 -1.511465,-0.2644 -1.598513,-0.35145 -0.08705,-0.0871 0.06609,-0.61633 0.340314,-1.17619 1.407978,-2.87455 2.145453,-7.19153 1.228538,-7.19153 -0.226364,0 -0.314308,-0.0973 -0.195428,-0.21614 0.403045,-0.40305 3.830905,0.6378 4.044068,1.22796 0.114367,0.31662 0.65781,1.15415 1.207657,1.86117 0.549846,0.70702 0.999723,1.43648 0.999723,1.62102 0,0.18454 0.29168,0.59949 0.648179,0.92212 0.615312,0.55685 0.671322,0.51649 1.104449,-0.79591 0.250945,-0.76037 0.353115,-1.79349 0.227044,-2.2958 -0.263426,-1.04957 -0.253672,-1.05245 1.683561,-0.49692 1.85585,0.5322 1.84639,0.52194 1.17019,1.26913 -0.31433,0.34732 -0.94717,2.12502 -1.40631,3.95043 -0.45915,1.82541 -0.99236,3.37145 -1.18493,3.43564 -0.19256,0.0642 -0.892576,-0.24887 -1.55559,-0.69567 z m 26.78598,-0.0856 c -0.0581,-0.23252 -0.17832,-1.73866 -0.29559,-3.70417 -0.15875,-2.66059 -0.26188,-2.82222 -1.80076,-2.82222 -1.54872,0 -1.5177,0.036 -1.04329,-1.21176 0.27381,-0.72016 0.58278,-0.90491 1.51338,-0.90491 0.64314,0 2.10159,-0.24282 3.24101,-0.5396 1.13942,-0.29678 2.65957,-0.61347 3.3781,-0.70374 0.71853,-0.0903 1.87828,-0.40309 2.57722,-0.69512 0.69895,-0.29204 1.33499,-0.53098 1.41344,-0.53098 0.0784,0 0.24417,0.635 0.36828,1.41111 0.27608,1.72652 0.64384,1.79077 1.21465,0.21221 0.23844,-0.65939 1.10827,-1.82086 1.93297,-2.58104 1.83619,-1.69254 4.90664,-2.52172 7.09767,-1.91675 1.27023,0.35072 1.30928,0.33765 0.77032,-0.2579 -0.76416,-0.84438 -0.73083,-0.94782 0.46508,-1.44318 0.56805,-0.2353 1.30703,-0.7308 1.64217,-1.10113 0.72367,-0.79964 1.20555,-0.86688 1.20555,-0.16821 0,0.81258 2.23776,4.82428 2.88487,5.17178 0.82339,0.44217 1.66983,0.0392 1.90762,-0.90827 0.34982,-1.39378 -1.89427,-5.0774 -3.38137,-5.55043 -0.32846,-0.10449 0.11254,-0.46259 1.16272,-0.94417 0.93054,-0.42672 1.9808,-1.04638 2.33391,-1.37702 1.42522,-1.33453 4.34978,-3.78348 4.64995,-3.89376 0.17604,-0.0647 0.32008,-0.34249 0.32008,-0.61736 0,-0.70244 0.33993,-0.62254 1.10515,0.25976 0.84748,0.97716 0.84808,0.97506 -0.39959,1.41 -1.15996,0.40437 -1.30837,0.88145 -0.58285,1.87367 0.45669,0.62456 0.5076,0.61816 1.2877,-0.16194 0.59858,-0.59858 0.95513,-0.72205 1.3556,-0.46945 0.75097,0.4737 0.9298,1.1743 0.29974,1.1743 -0.9866,0 -1.29585,1.90811 -0.36702,2.26454 0.65808,0.25253 2.93953,-1.14484 2.94331,-1.80275 0.005,-0.81342 0.60676,-0.7809 1.05519,0.057 0.52239,0.9761 0.63079,0.82926 -2.85861,3.87247 -1.23526,1.07731 -2.35546,1.95874 -2.48933,1.95874 -0.13388,0 -0.3331,-0.27781 -0.44272,-0.61736 -0.37866,-1.17286 -4.41646,-5.4475 -4.96351,-5.25464 -0.57969,0.20436 -0.24446,1.09209 1.47512,3.90626 1.16754,1.91074 1.84278,2.67923 2.37163,2.69915 0.5189,0.0195 0.58158,0.0879 0.21019,0.22928 -0.29104,0.11079 -0.60854,0.30036 -0.70555,0.42127 -0.34837,0.43418 -2.10038,1.43826 -2.50959,1.43826 -0.22976,0 -0.95736,0.55563 -1.6169,1.23473 -0.65953,0.67909 -1.509,1.23472 -1.88772,1.23472 -0.37871,0 -0.68857,0.16944 -0.68857,0.37655 0,0.39703 -1.4456,0.0884 -1.76389,-0.37655 -0.097,-0.14173 -0.52077,-0.36509 -0.94169,-0.49636 -0.5856,-0.18264 -0.82023,-0.0656 -0.99928,0.49854 -0.35624,1.12241 0.42024,1.76171 2.13974,1.76171 1.83016,0 2.19877,0.43357 1.24183,1.46073 -0.75225,0.80744 -2.87945,1.30409 -5.74131,1.34046 -0.91018,0.0116 -1.74379,0.16491 -1.85248,0.34076 -0.60091,0.97229 -6.19403,0.65888 -6.19403,-0.34709 0,-0.17898 -0.22649,-0.32542 -0.5033,-0.32542 -0.27682,0 -0.58771,-0.27781 -0.69088,-0.61736 -0.10317,-0.33955 -0.12965,-0.14111 -0.0588,0.44097 0.0708,0.58209 0.24147,1.41552 0.37925,1.85208 0.20016,0.6342 0.1146,0.79375 -0.42563,0.79375 -0.37188,0 -0.82696,0.14203 -1.01129,0.31562 -0.18432,0.17358 -0.86688,0.42779 -1.51678,0.56491 -1.08971,0.2299 -1.16315,0.19102 -0.94392,-0.49973 0.2376,-0.74859 -1.05257,-5.87939 -1.64661,-6.54832 -0.19026,-0.21425 -0.38657,-0.0458 -0.51386,0.44097 -0.15324,0.58599 -0.46721,0.78767 -1.22625,0.78767 h -1.02027 l 0.22566,2.02847 c 0.12411,1.11566 0.42323,2.6203 0.66471,3.34364 l 0.43904,1.31518 -1.27898,0.2034 c -0.70344,0.11187 -1.55464,0.35348 -1.89156,0.53691 -0.6881,0.37463 -0.95438,0.41568 -1.01902,0.15712 z m 18.3709,-6.8608 c 0.73154,-0.46279 0.64255,-2.66072 -0.14287,-3.5286 -0.46486,-0.51366 -1.09025,-0.7231 -2.15919,-0.7231 -1.3646,0 -1.5252,0.0929 -1.72378,0.99705 -0.2662,1.21197 0.25029,2.69491 1.1135,3.19708 0.78971,0.45941 2.23208,0.48792 2.91234,0.0576 z m -57.132362,4.32838 c -0.679098,-0.29403 -1.276495,-0.5742 -1.327549,-0.62261 -0.05105,-0.0484 0.147383,-0.66293 0.440972,-1.36559 0.598071,-1.43138 0.68719,-2.35855 0.226699,-2.35855 -0.168907,0 -0.922969,0.63486 -1.675695,1.4108 -0.752725,0.77594 -1.462966,1.41094 -1.578306,1.41111 -0.115341,1.7e-4 -0.631279,-0.36193 -1.146528,-0.80467 -0.703591,-0.60457 -0.945572,-1.15349 -0.971981,-2.20486 -0.01933,-0.76993 -0.144194,-1.79096 -0.277449,-2.26896 -0.241025,-0.86454 -0.246362,-0.86248 -1.023168,0.39442 -0.429486,0.69493 -0.780884,1.68132 -0.780884,2.19199 0,1.06591 0.0058,1.06425 -1.811154,0.51989 -1.424147,-0.42669 -1.734087,-0.88257 -0.83468,-1.2277 0.291042,-0.11168 0.529167,-0.4242 0.529167,-0.69448 0,-0.27028 0.15875,-0.49143 0.352778,-0.49143 0.194028,0 0.352778,-0.20127 0.352778,-0.44727 0,-0.246 0.388725,-1.01934 0.863839,-1.71853 0.978962,-1.44068 1.508034,-3.12586 0.981375,-3.12586 -0.600385,0 -2.929138,1.0652 -4.266392,1.9515 -0.705644,0.46769 -1.494733,1.33117 -1.753531,1.91886 -0.574894,1.30549 -0.797472,1.31429 -3.149068,0.12449 -1.949679,-0.98645 -2.14885,-1.46585 -0.852268,-2.05142 0.425781,-0.19229 0.862771,-0.62886 0.971091,-0.97014 0.108321,-0.34128 0.344996,-0.62052 0.525949,-0.62052 0.376009,0 0.423507,-1.67434 0.102574,-3.61597 -0.180978,-1.09491 -0.362712,-1.32291 -1.054449,-1.32291 -0.459684,0 -0.835787,-0.15875 -0.835787,-0.35278 0,-0.79825 -1.57951,-1.86954 -2.99103,-2.02864 -1.451356,-0.16359 -1.497976,-0.13527 -2.237229,1.35889 -0.645258,1.30418 -0.687525,1.62757 -0.290812,2.22505 0.747109,1.12521 1.228062,1.05223 2.030691,-0.30813 0.683782,-1.15892 0.807498,-1.22779 1.327468,-0.7389 0.315376,0.29652 1.035463,0.91251 1.600189,1.36885 l 1.026778,0.82972 -1.101119,1.60042 c -1.703913,2.47656 -2.125151,2.44987 -5.801674,-0.36745 -2.309084,-1.76946 -2.935997,-3.13692 -2.566805,-5.59887 0.31255,-2.08423 0.514446,-2.57428 1.06059,-2.57428 0.246526,0 0.645854,-0.23812 0.887397,-0.52916 0.735941,-0.88675 3.685314,-0.68727 5.215887,0.35278 0.713842,0.48507 1.425088,0.88194 1.580543,0.88194 0.155455,0 0.838271,0.55563 1.517368,1.23472 0.679097,0.6791 1.311031,1.23472 1.404299,1.23472 0.09327,0 0.72101,0.35719 1.394985,0.79375 0.917554,0.59434 1.226503,1.04331 1.229773,1.78708 0.0051,1.15393 0.570234,2.35806 1.106759,2.35806 0.204608,0 0.646282,-0.3387 0.981495,-0.75268 0.585858,-0.7235 0.656424,-0.73036 1.820436,-0.17687 0.666027,0.3167 1.660969,0.96324 2.210985,1.43677 0.550016,0.47353 1.454725,0.96083 2.010467,1.08289 0.892598,0.19605 1.035723,0.41455 1.22725,1.87355 0.119249,0.90839 0.246415,1.87659 0.282589,2.15155 0.123913,0.94182 0.797807,0.74227 2.269723,-0.67208 0.810126,-0.77844 1.66014,-1.41535 1.88892,-1.41535 0.22878,0 1.107444,0.34534 1.95259,0.76743 1.333645,0.66605 1.47525,0.84081 1.071986,1.32292 -0.640613,0.76586 -1.755648,5.83855 -1.476622,6.71768 0.185388,0.5841 0.07606,0.71164 -0.589964,0.68819 -0.44964,-0.0158 -1.373149,-0.26934 -2.052246,-0.56336 z M 68.382523,145.6816 c 0,-0.29991 0.400936,-1.84772 0.890965,-3.43959 1.557034,-5.05803 1.838939,-5.98612 3.022244,-9.94985 1.275941,-4.27404 1.276819,-4.27618 1.616166,-3.93683 0.13074,0.13074 -0.108542,1.38751 -0.531738,2.79282 -3.242328,10.76691 -4.436066,14.26416 -4.250596,14.15013 8.32616,-5.05866 16.961768,-10.86462 25.190116,-16.0465 l 1.798804,-1.33397 c 0.476959,-0.5747 2.602928,-1.28434 2.602928,-0.78373 0,0.17049 -0.47625,0.50725 -1.058333,0.74836 l -2.028472,1.38436 -3.792362,2.29163 -17.020033,10.9739 -6.274032,3.69455 c -0.07851,0.0462 -0.165657,-0.24538 -0.165657,-0.54528 z m 83.242997,-0.11214 c -0.52638,-0.21816 -12.16101,-7.50591 -15.24946,-9.30147 l -2.20719,-1.28321 -8.57876,-5.23007 c -0.4571,-0.27867 -0.73646,-0.60544 -0.62902,-0.71287 3.07252,1.38421 6.45776,3.66143 8.72924,5.04111 l 16.16374,9.70047 c 0.82328,0.59637 1.58455,0.99662 1.69173,0.88945 0.23394,-0.23394 -0.49751,-2.77932 -2.03714,-7.08904 -0.62384,-1.74625 -1.25743,-3.65125 -1.408,-4.23334 -0.15056,-0.58208 -1.25182,-3.83646 -2.44726,-7.23194 -1.19544,-3.39549 -3.11344,-9.03111 -4.26224,-12.52361 -1.1488,-3.4925 -2.58888,-7.82889 -3.20017,-9.63643 -0.63166,-1.86774 -0.97681,-3.41048 -0.79954,-3.57382 l 38.25757,-28.087232 -1.62927,0.116091 -42.96152,-2.88079 -1.49623,0.09068 c -0.95018,-0.254117 -1.13561,-0.877973 -0.21646,-0.744849 0.57969,0.08396 5.64438,0.313313 10.29809,0.466351 l 36.97348,2.612824 c 0.10856,0.108567 -0.10949,0.438323 -0.48457,0.732783 l -36.13613,26.650028 c -1.23858,0.908454 -1.96836,1.307484 -1.90117,1.687174 0.13984,0.79021 4.86622,15.33103 6.16744,18.93495 l 2.1654,6.15585 c 0.31265,1.06715 1.38723,4.32153 2.38795,7.23194 2.7845,8.09822 3.92015,11.92163 3.6222,12.19494 -0.14904,0.13671 -0.51476,0.14752 -0.81271,0.024 z M 70.153707,128.42039 c -0.282825,-0.34078 -0.341965,-1.02205 -0.175785,-2.02506 0.302232,-1.8242 0.761146,-2.76312 1.663273,-3.40298 0.575218,-0.408 0.641304,-0.74176 0.43864,-2.21529 -0.294848,-2.14381 0.147962,-2.78273 1.902132,-2.74455 l 1.279723,0.0278 -1.014063,0.36896 c -0.972059,0.35369 -1.005622,0.44023 -0.81031,2.08934 0.175814,1.48446 0.09127,1.83286 -0.616465,2.5406 -1.10642,1.10642 -1.52188,1.94843 -1.668925,3.38239 -0.139745,1.3628 0.679263,1.9959 0.999215,0.7724 0.233761,-0.89391 0.658605,-0.96007 0.969102,-0.15093 0.447756,1.16684 -2.141432,2.35146 -2.966537,1.35727 z m 53.039703,-6.1117 c -0.84604,-1.62182 -0.27162,-7.26219 1.71422,-10.19851 1.34287,-1.98561 1.1183,-1.93208 2.2139,-3.50558 l 1.37653,-1.8566 1.07783,-1.52503 1.29118,-1.39557 c 0.39369,-0.42551 0.92673,-1.31959 1.50186,-1.9841 0.84725,-0.97891 1.0894,-1.39223 1.36904,-2.851948 0.2573,-1.214962 0.0602,-1.666156 -0.34307,-3.317588 -0.56526,-1.343171 -1.37593,-1.714401 -1.8153,-1.903546 -1.20072,-0.516896 -1.65344,-0.577422 -2.30241,-0.592712 -2.39405,0.02433 -8.54065,-0.283293 -10.49628,0.752931 -0.44623,0.273661 0.16065,-0.03149 -1.6669,0.886464 -0.14552,0.07309 -1.05976,0.634636 -1.05976,0.333219 0,-0.301417 0.58701,-0.769642 1.36163,-1.211997 1.55131,-0.885899 1.67241,-1.333958 0.87584,-3.240429 -0.39156,-0.937116 -0.47645,-1.888268 -0.3119,-3.494405 0.13833,-1.350148 0.0495,-3.023926 -0.22892,-4.311742 -0.25026,-1.15771 -0.41747,-3.02012 -0.37157,-4.138683 0.0459,-1.118563 -0.009,-2.324438 -0.12156,-2.679721 -0.18764,-0.591199 -1.79414,-1.291784 -3.53929,-1.543459 -0.38583,-0.05564 -0.75466,-0.377158 -0.81962,-0.714477 -0.0905,-0.469664 0.1235,-0.613311 0.91345,-0.613311 3.20557,0 4.39583,1.541801 4.49366,5.820833 0.0355,1.552222 0.25809,3.615972 0.49467,4.586111 0.26938,1.1046 0.34158,2.656286 0.19317,4.15145 -0.18768,1.89086 -0.11931,2.567142 0.32862,3.250783 0.46071,1.129524 0.88849,1.942317 1.98149,1.70888 0.82438,-0.42503 7.39121,-0.81856 8.63829,-0.468054 l 0.92234,0.259234 c 1.58343,0.44504 3.47107,1.911048 3.73455,4.46392 0.1958,1.897066 -0.53863,4.357827 -1.02686,4.729677 -0.98018,1.79472 -1.69521,2.39314 -2.74476,3.51245 -0.77794,0.82501 -1.41444,1.5773 -1.41444,1.67176 0,0.0944 -0.68462,1.08631 -1.52137,2.20414 -2.49076,3.32744 -3.05117,4.57211 -3.79572,8.43029 -0.67983,3.5228 -0.96465,3.55271 -0.37052,4.55847 0.30762,0.82009 1.77674,1.18986 1.80156,1.71058 -0.4844,0.76641 -1.94482,-0.7385 -2.33358,-1.48373 z m -9.13414,0.51331 c -1.12788,-0.64341 -2.00213,-1.53855 -3.2561,-1.98635 -0.52786,-0.1885 -1.0867,-0.78868 -1.65669,-0.28798 -0.83161,0.7305 -2.0466,1.17279 -2.0466,0.68883 0,-0.0488 0.36275,-0.56977 0.66146,-0.6742 0.38278,-0.13382 0.87339,-0.34017 1.10243,-0.47405 0.40931,-0.23923 0.76385,-0.54091 0.99566,-0.3934 0.68714,0.43725 1.75994,0.78125 2.96643,1.44045 1.54543,0.87298 3.24985,2.18266 3.34298,2.42534 0.21175,0.55181 0.35975,0.67 -2.10957,-0.73864 z m -36.476881,-5.4347 c 0.256745,-0.33955 0.755826,-0.93486 1.10907,-1.32292 0.353243,-0.38805 0.967888,-1.14212 1.365878,-1.67569 0.649146,-0.7413 1.51975,-1.06341 1.938916,-1.85313 0.232728,-0.44333 0.720224,-1.28022 1.329637,-1.76574 0.609413,-0.48552 1.359464,-1.12005 1.666783,-1.41007 0.530754,-0.54958 1.335497,-0.43967 1.873423,-0.8198 0.09942,-0.16087 1.100981,-0.49351 2.225682,-0.7392 3.104152,-0.6781 3.450213,-0.88711 4.519062,-2.72952 0.544619,-0.93877 1.214494,-1.84028 1.488617,-2.00336 0.274122,-0.16308 0.880025,-0.72481 1.346447,-1.24829 0.466425,-0.52348 1.802504,-1.5013 2.969066,-2.172936 1.16656,-0.671632 2.12274,-1.41551 2.12484,-1.653063 0.002,-0.237554 0.44039,-0.66161 0.97396,-0.942354 0.53358,-0.280744 1.22527,-0.80076 1.5371,-1.155587 1.5129,-1.721528 2.57957,-2.283443 4.50086,-2.371002 0.81279,-0.03704 0.83024,-0.104172 0.67116,-2.582891 -0.18542,-2.88926 -0.46955,-3.359661 -2.71821,-4.500283 -0.88531,-0.449072 -2.13562,-1.471736 -2.77847,-2.272584 -0.64285,-0.800848 -1.31754,-1.364174 -1.49931,-1.251835 -0.18177,0.112342 -0.33049,0.03614 -0.33049,-0.169341 0,-0.205479 -0.2351,-0.373599 -0.52244,-0.373599 -0.28735,0 -0.61952,-0.386785 -0.73817,-0.859521 -0.19091,-0.760621 -1.141768,-1.288417 -1.054612,-0.477298 0.238638,2.220891 -0.827926,0.595394 -1.38702,-0.0727 -0.251434,-0.300452 -0.646398,-0.356655 -0.766494,-0.236559 -0.120096,0.120096 0.04249,0.318453 0.361301,0.440793 0.765358,0.293694 0.996437,2.090622 0.61711,2.883092 -0.209961,0.438641 -1.520798,-0.844594 -3.014445,-2.218059 -0.716897,-0.659214 -1.285905,-1.928105 -1.757653,-2.827572 -0.656765,-1.252234 -0.04917,-1.521863 -1.237896,-1.571067 C 91.684629,77.405765 90.950602,77.30887 90.766275,77.154452 89.970267,76.4876 87.71407,75.954225 87.326921,76.341373 86.781364,76.88693 84.1805,76.82422 80.511374,76.177039 c -2.118035,-0.373592 -3.761591,-0.465314 -5.073293,-0.283125 -4.272608,0.593442 -5.644445,0.345383 -5.644445,-1.020643 0,-0.391414 -0.277562,-0.914622 -0.616807,-1.162685 -0.948694,-0.693698 -0.230262,-1.035353 0.782186,-0.371972 0.491127,0.3218 0.892955,0.898927 0.892955,1.282509 0,0.56775 0.240206,0.697424 1.291911,0.697424 0.71055,0 2.142811,-0.268224 3.182799,-0.59605 1.787201,-0.563364 1.986016,-0.561844 3.625597,0.02773 2.112542,0.759661 7.465158,0.967743 7.688114,0.298877 0.173341,-0.52002 2.420175,-0.58855 2.732412,-0.08334 0.292947,0.473996 2.998611,0.453069 2.998611,-0.02318 0,-0.206784 -0.136666,-0.643346 -0.303703,-0.970138 l -0.139865,-4.15586 -46.999694,2.999626 c -1.751727,0.223241 -2.098775,0.204421 -0.778938,1.03578 9.536227,7.52713 24.40283,16.445574 30.559857,21.346276 6.157028,4.900702 7.877382,4.61473 6.958963,7.669062 -2.687983,8.93923 -3.356843,11.22936 -3.569847,12.22287 -0.269966,1.25919 -0.896217,1.90556 -0.896217,0.92502 0,-0.34099 0.40073,-1.97755 0.890509,-3.6368 0.489783,-1.65925 1.214985,-4.12806 1.611563,-5.48626 0.396579,-1.35819 0.861399,-2.86632 1.032934,-3.35139 0.835,-2.36121 0.734297,-2.41979 -3.774122,-5.725529 C 64.16488,87.997513 54.918997,82.767056 44.108288,74.987723 42.920607,74.141003 41.571412,72.294077 41.571412,72.145096 59.394121,70.753002 74.689681,69.905819 91.705637,68.971103 l 0.446457,-1.270259 c 0.319684,-0.909565 1.303964,-1.759568 1.83754,-2.243275 1.897443,-1.952776 2.949368,-3.33192 5.644379,-3.678859 2.484947,-0.278324 3.835227,-0.71226 3.835227,0.222774 0.5653,0.524776 1.18001,0.558622 1.31937,1.029846 0.20356,-0.610676 2.47539,1.043764 3.06045,2.175143 1.03313,1.997859 0.81507,2.189437 -0.74918,0.526661 -1.48447,-1.577982 -1.52158,-1.593416 -3.75197,-1.560414 -2.06438,0.03055 -2.28062,0.107051 -2.58693,0.915275 -0.43448,1.146411 -0.14739,4.229343 0.4269,4.584273 0.24538,0.151652 0.33277,0.459186 0.19419,0.683405 -0.36914,0.597288 0.47123,1.4351 1.43948,1.4351 0.81673,0 1.07609,0.350622 0.60663,0.820088 -0.12767,0.127667 -0.4519,0.04973 -0.72051,-0.173196 -0.36799,-0.305411 -0.58905,-0.304656 -0.89676,0.0032 -0.30933,0.309326 -0.25244,0.408382 0.23453,0.408382 0.5453,0 0.57285,0.08443 0.18144,0.556056 -0.38246,0.46083 -0.37476,0.610933 0.045,0.87654 0.6976,0.441423 1.05406,0.409338 2.22251,-0.200047 1.19839,-0.625005 1.28259,-0.635945 1.28259,-0.166652 0,0.198187 -0.39688,0.541168 -0.88195,0.76218 -1.37011,0.624268 -1.0638,0.90376 1.28986,1.176934 1.19449,0.138634 2.7423,0.486939 3.43958,0.774008 1.31396,0.540953 2.85529,1.771569 2.85529,2.279696 0,0.569108 -1.16189,0.279851 -1.79139,-0.445971 -0.47668,-0.549617 -1.20549,-0.786021 -2.8636,-0.928846 -1.2233,-0.105375 -2.38293,-0.315176 -2.57696,-0.466221 -0.67077,-0.522178 -4.20991,-0.999402 -4.65885,-0.628209 -0.23404,0.193506 -0.600247,0.24384 -0.813801,0.111859 -0.500867,-0.309668 -2.11207,0.09082 -2.11207,0.52487 0,0.596071 1.435943,1.687681 2.499971,1.900488 1.03789,0.207578 2.36194,1.379262 5.14713,4.554833 0.81042,0.924006 2.00104,1.903533 2.64583,2.176717 1.73787,0.7363 2.52855,1.884263 2.80672,4.074981 0.46221,3.640141 0.40196,3.999738 -0.78325,4.674306 -0.59658,0.339548 -1.5958,0.617361 -2.22049,0.617361 -1.964,0 -2.82074,0.667159 -3.81608,2.971606 -0.84816,1.963724 -1.02612,2.152494 -2.12002,2.248874 -0.74686,0.0658 -1.848676,0.62501 -2.94156,1.49292 -0.96108,0.76323 -2.255661,1.74776 -2.87685,2.18784 -0.621189,0.44008 -1.290119,1.15217 -1.48651,1.58241 -0.544142,1.19208 -3.001275,2.79922 -4.692248,3.06908 -2.366606,0.37768 -6.273754,2.41383 -6.273754,3.26948 0,0.51018 -5.461685,6.10834 -5.95943,6.10834 -0.396896,0 -0.3986,-0.10363 -0.01016,-0.61736 z M 97.310301,78.140772 c 0,-0.194027 -0.238125,-0.352777 -0.529167,-0.352777 -0.291041,0 -0.529166,0.15875 -0.529166,0.352777 0,0.194028 0.238125,0.352778 0.529166,0.352778 0.291042,0 0.529167,-0.15875 0.529167,-0.352778 z m 3.880559,-2.822222 c 0,-0.194028 -0.14938,-0.352778 -0.33196,-0.352778 -0.18258,0 -0.43007,0.15875 -0.54999,0.352778 -0.11991,0.194028 0.0295,0.352778 0.33196,0.352778 0.30249,0 0.54999,-0.15875 0.54999,-0.352778 z m -3.880559,-1.037512 c 0,-0.416229 -0.68804,-0.861483 -0.940742,-0.608785 -0.252698,0.252702 0.192557,0.940742 0.608785,0.940742 0.182577,0 0.331957,-0.149381 0.331957,-0.331957 z m 2.694279,-3.923725 c -0.246463,-1.23232 -1.284367,-2.921074 -1.281199,-2.08462 0.0011,0.285707 0.167294,1.114781 0.369358,1.842385 0.44643,1.60752 1.226341,1.814703 0.911841,0.242235 z M 81.940849,117.6901 c 0.232692,-0.37651 4.629606,-2.28501 5.116668,-2.50766 0.15808,-0.0723 0.366607,-0.13999 0.375006,-0.28309 0.02656,-0.45254 3.235653,-1.4862 4.586111,-1.46397 l 1.234723,0.0203 -1.741463,0.86337 c -0.957803,0.47485 -2.183127,0.61588 -2.557639,0.86337 -0.169262,0.11185 -0.662946,0.22004 -0.816176,0.35278 -0.146648,0.12704 -0.277813,0.35478 -0.617361,0.35724 -0.339549,0.002 -1.552544,0.47871 -2.695547,1.05834 -2.052613,1.04089 -3.262355,1.35097 -2.884322,0.7393 z m 41.073871,-11.36412 c -0.0704,-1.66958 -0.0137,-3.17771 0.12605,-3.35139 1.81447,-2.255 2.7423,-3.144067 3.69783,-3.543313 1.43059,-0.597739 1.51615,-0.594773 1.51615,0.05255 0,0.291042 -0.29094,0.529163 -0.64652,0.529163 -1.42415,0 -3.90692,4.28074 -3.96439,6.83533 -0.0137,0.6062 -0.15446,1.41967 -0.31294,1.80773 -0.19135,0.46853 -0.33116,-0.31423 -0.41618,-2.33007 z M 112.47975,80.765785 c 0,-0.302493 0.16133,-0.450272 0.35853,-0.328401 0.19719,0.12187 0.2672,0.369365 0.15557,0.549987 -0.30242,0.489317 -0.5141,0.398078 -0.5141,-0.221586 z M 64.614856,76.979692 c -0.100947,-0.163336 0.110169,-0.519489 0.469145,-0.791449 0.60215,-0.456188 0.561958,-0.495346 -0.519038,-0.505697 -1.041534,-0.01 -1.112929,-0.07002 -0.64256,-0.540385 0.291042,-0.291041 0.985008,-0.529166 1.542143,-0.529166 0.557139,0 1.193709,-0.180732 1.4146,-0.401624 0.300313,-0.300312 0.674067,-0.12918 1.481667,0.67842 1.609122,1.609118 1.285032,3.223204 -0.408943,2.036696 -0.982568,-0.688217 -1.333236,-0.69463 -1.333236,-0.02439 0,0.56219 -1.664448,0.626643 -2.003778,0.07759 z m -30.099,-2.745104 -3.745589,-1.610333 c -0.522131,-0.224479 -0.605374,-0.450846 -0.01574,-1.936929 0.259599,-0.654283 0.748978,-1.943671 1.087511,-2.865303 0.653268,-1.77848 0.97179,-2.345334 2.089086,-1.500734 0.601684,0.454833 0.277347,0.705292 0.193368,1.444945 -0.05294,0.466279 -0.765536,2.350247 -0.606017,1.899647 0.07699,-0.217491 1.137725,0.72721 1.305225,0.24463 0.322273,-0.928497 0.593578,-2.15139 1.318318,-1.962749 1.424944,0.370895 -0.07203,1.773812 0.282022,2.615064 0.346162,0.822511 1.098976,0.840417 1.606828,-0.672988 0.303173,-0.903459 0.416138,-1.441757 0.899929,-1.591504 0.354795,-0.109819 0.988421,0.151267 1.265728,0.381411 0.623369,0.51735 -0.04265,0.95602 -0.781722,3.356254 l -0.665608,2.161663 c -0.425801,1.382854 -0.761409,1.453564 -4.233334,0.03692 z M 184.32674,73.466467 c -1.06659,-2.418891 -2.05762,-5.525537 -1.86307,-5.840317 0.11177,-0.180848 0.81442,-0.426547 1.56146,-0.546005 0.74703,-0.119454 2.29836,-0.693921 3.4474,-1.27659 2.39393,-1.213947 2.61833,-1.261018 2.61833,-0.549229 0,0.285507 0.40469,1.434187 0.89931,2.552616 0.99182,2.242678 0.92371,3.631053 -0.17813,3.631053 -0.50535,0 -0.70444,-0.290043 -0.78703,-1.146528 -0.0838,-0.869611 -0.29776,-1.173166 -0.8857,-1.25682 -0.70095,-0.09974 -0.75616,0.0067 -0.57674,1.112375 0.16187,0.997501 0.0626,1.295365 -0.53909,1.617373 -0.64574,0.345589 -0.76588,0.281644 -0.96555,-0.513919 -0.16893,-0.673061 -0.42269,-0.880855 -0.97881,-0.801522 -0.60583,0.08642 -0.72929,0.311401 -0.63955,1.16543 0.0612,0.582083 0.33072,1.397324 0.599,1.811648 0.54134,0.836026 0.37103,1.186963 -0.57607,1.186963 -0.37212,0 -0.83725,-0.469544 -1.13576,-1.146528 z m -75.8263,-0.433885 c -1.05635,-1.056351 -1.31236,-1.575131 -1.31236,-2.659345 0,-1.55975 0.28287,-2.46302 0.77133,-2.46302 0.19929,0 0.2435,0.453284 0.10549,1.081634 -0.26412,1.20256 0.37889,3.151699 1.03974,3.151699 0.23091,0 0.76064,-0.3175 1.17717,-0.705555 0.41653,-0.388056 1.06295,-0.705556 1.43649,-0.705556 0.38247,0 0.75976,-0.308218 0.86366,-0.705555 0.10148,-0.388056 0.4375,-0.705556 0.7467,-0.705556 0.30921,0 0.5622,-0.234156 0.5622,-0.52035 0,-0.544636 1.891,-1.518624 5.47545,-2.820212 2.60104,-0.944488 5.04396,-2.646408 4.83448,-3.368064 -0.0835,-0.287825 -0.43132,-1.158318 -0.77283,-1.934429 -4.74725,-11.959204 -8.07349,-21.650622 -12.60343,-33.811142 -0.35081,-0.939602 -0.74982,-2.310007 -0.94385,-2.245022 -0.19403,0.06499 -0.65336,1.48856 -0.96358,2.363176 -1.38554,3.107183 -2.07821,5.620691 -3.30337,8.645767 -0.39441,0.964689 -1.0778,2.751632 -3.37287,8.819444 -0.44033,1.164167 -1.00048,2.592917 -1.2448,3.175 -0.24431,0.582083 -0.73084,1.852083 -1.081169,2.822222 -1.885992,4.677906 -3.823546,10.29021 -5.109058,13.422982 -2.294485,2.903644 3.590708,-11.259774 4.736744,-14.484967 1.194113,-3.427228 4.528963,-12.33521 5.149293,-13.754681 1.12858,-3.08241 2.63814,-6.333787 3.58447,-9.084669 0.40546,-1.203598 0.94862,-2.588803 1.20701,-3.078234 l 0.46981,-0.889874 0.76003,1.763889 c 2.1763,5.8069 4.16039,11.462688 6.19191,16.933332 l 1.99629,5.242419 1.58435,4.409722 2.18634,5.693692 1.09334,2.998611 c 0.51523,0.957408 0.55892,1.878407 1.56719,2.570388 1.11558,-1.228217 4.61191,-3.39816 5.66076,-3.659921 0.57812,-0.144283 2.81984,-0.933373 4.98161,-1.753535 3.6429,-1.382099 4.13247,-1.481187 6.69114,-1.354303 1.51836,0.0753 3.00726,0.212167 3.30867,0.304161 0.30141,0.09199 1.1272,0.03376 1.8351,-0.129395 0.7079,-0.16316 1.46734,-0.185254 1.68764,-0.0491 1.18337,0.731358 -1.65537,2.660392 -3.79878,2.581423 -1.07262,-0.03952 -0.96889,-0.09817 -0.65909,0.54707 0.42336,0.881766 0.30829,1.615306 0.40351,2.498155 0.0793,0.734917 -0.92205,0.429905 -1.18025,0.16113 -0.90677,-0.943922 -1.58911,-1.124408 -1.8695,-1.380223 -1.36684,-1.247072 -2.53711,-1.312813 -4.47012,0.105114 -5.99409,5.589905 -8.04234,7.14375 -9.41675,7.14375 -1.06196,0 -0.34894,-1.18455 0.90707,-1.506922 1.4408,-0.369803 2.79884,-1.35327 4.76196,-3.44854 4.06152,-4.334916 3.85665,-4.192535 5.9955,-4.166987 1.22482,0.01464 2.19483,0.185088 2.47988,0.538508 2.45395,3.042546 2.61537,1.927304 1.06758,-0.49229 -0.17085,-0.267081 -0.14956,-1.020125 0.20261,-1.031173 7.92932,-0.24876 0.20499,-0.916429 -2.23434,-0.916355 -1.86009,3.53e-4 -2.59094,0.199599 -4.51262,1.229583 -1.26118,0.675964 -3.16618,1.513677 -4.23333,1.86158 -1.97193,0.64287 -6.02863,2.559607 -6.35,3.00029 -0.097,0.133032 -1.12889,1.009339 -2.29306,1.947354 -1.16417,0.938015 -2.31122,1.974967 -2.54901,2.304338 -0.23779,0.32937 -0.98514,0.70256 -1.66079,0.829313 -2.31454,0.434209 -5.36923,2.622557 -5.00084,3.582557 0.22837,0.595122 -0.19028,0.66143 -0.73526,0.116455 -0.27897,-0.278976 -0.61556,-0.2418 -1.21708,0.134419 -0.4573,0.286026 -1.26401,0.620321 -1.79268,0.74288 -0.6963,0.161424 -1.0395,0.524961 -1.24527,1.319061 l -0.28406,1.096218 z m -68.230937,-7.195266 -4.232532,-2.360161 -0.462781,0.894214 -0.500315,0.716626 -1.616352,-1.108897 c -0.828011,-0.568056 3.533753,-8.063325 4.036412,-8.063325 0.76066,0 0.984293,0.661343 1.452983,1.466713 0.519345,0.892413 -1.40526,2.240082 -1.078379,2.397076 l 2.997317,1.439544 1.411111,0.476582 1.411632,0.48606 c 0.135425,0.04663 -0.436276,1.171141 -0.970138,2.284251 -1.009027,2.103829 -1.274961,2.025966 -2.448958,1.371317 z M 182.25339,66.21585 c -0.72482,-0.295465 -2.47392,-2.971546 -3.13235,-4.792394 -0.51696,-1.429642 -0.19191,-2.415071 0.86527,-2.623132 0.46448,-0.09142 0.58177,0.18875 0.59077,1.411111 0.012,1.629763 0.71502,2.929386 1.45181,2.683792 0.30529,-0.101765 0.45387,-0.944562 0.46332,-2.62818 0.009,-1.563373 0.19268,-2.693864 0.49809,-3.062047 0.50401,-0.607597 2.16167,-0.816205 2.16167,-0.272038 0,0.171397 0.28594,0.386405 0.63541,0.477795 0.34948,0.09139 1.10354,1.060757 1.6757,2.154146 0.80896,1.545932 0.95623,2.121404 0.6623,2.588013 -0.67003,1.063639 -1.12156,0.884604 -1.61185,-0.639106 -0.78085,-2.426734 -1.36074,-2.157586 -1.36676,0.634372 -0.008,3.546524 -0.94369,4.862452 -2.89338,4.067668 z m -5.33446,-8.690369 c -1.11949,-2.286307 -1.12289,-2.315263 -0.27137,-2.315263 0.53519,0 1.09607,-0.622826 1.09607,-1.217126 0,-0.0556 -0.62149,-0.184446 -1.3811,-0.286328 -1.80395,-0.241964 -4.26134,-2.147642 -4.76884,-3.290341 -0.21867,-0.492364 -0.60573,-1.111699 -0.71227,-1.413266 -0.32124,-0.909326 -1.01941,-3.543648 -0.55357,-4.768926 2.75216,-3.075026 3.77282,-2.171805 5.39513,-1.95986 1.79448,0.384109 3.35251,2.501593 3.99282,3.893317 0.71103,1.545447 0.83962,2.109632 0.64285,3.750863 -0.12795,1.067153 -0.39441,2.14255 -0.59215,2.389777 -0.19773,0.247223 -0.28329,0.525723 -0.19012,0.618888 0.24989,0.249891 2.40059,-0.88846 2.40059,-1.270613 0,-0.787951 0.74999,-0.211723 1.41111,1.08417 0.39594,0.776112 0.87542,1.411111 1.0655,1.411111 0.19009,0 0.34561,0.15875 0.34561,0.352778 0,0.194028 -0.24445,0.352778 -0.54322,0.352778 -1.44434,0 -5.80678,3.075301 -5.80678,4.093489 0,1.01117 -0.61991,0.433715 -1.53026,-1.425448 z m -0.75465,-7.524136 c 0.57899,-0.41577 1.57935,-2.127525 1.57935,-2.702472 0,-0.868955 -1.46571,-1.966433 -2.62623,-1.966433 -0.86647,0 -1.17679,0.213946 -1.55736,1.073711 -0.5286,1.194192 -0.28943,3.354843 0.4024,3.635262 0.66231,0.268457 1.80106,0.247731 2.20184,-0.04007 z M 39.254393,52.107979 c 1.900364,-7.971269 10.674191,-5.26929 10.245375,0.562816 -1.183993,7.576995 -11.260289,5.760779 -10.245375,-0.562816 z m 3.68591,1.883808 c 1.843877,0.826122 4.805722,-0.463771 3.235095,-3.251331 -1.997602,-2.165088 -5.934234,1.056037 -3.235095,3.251331 z m 8.299425,-5.07806 c 0.284611,-0.460509 -3.973887,-4.63962 -4.727756,-4.63962 -0.366074,0 -0.764667,-0.160313 -0.885763,-0.356249 -0.221966,-0.359149 1.860441,-3.877084 2.295001,-3.877084 0.128564,0 0.459016,0.423238 0.734337,0.940527 0.497206,0.93418 4.081956,4.133818 4.958848,4.426115 0.325087,0.108363 0.117817,0.682932 -0.713955,1.979136 -0.644614,1.004542 -1.323596,1.826444 -1.508848,1.826444 -0.185252,0 -0.253591,-0.13467 -0.151864,-0.299269 z M 54.27141,44.83665 c 0,-0.43319 -0.856653,-1.618361 -3.09664,-4.284172 -0.33414,-0.397662 -0.885339,-0.829243 -1.224888,-0.959069 -0.756153,-0.289115 -0.80978,-1.167199 -0.08819,-1.444097 0.745072,-0.494942 1.288067,-2.648418 2.270826,-2.179221 0.206254,0.127472 0.375007,0.453085 0.375007,0.723583 0,0.74461 3.19085,4.052656 3.90908,4.052656 0.599509,0 1.751665,-1.320613 2.168309,-2.485339 0.111301,-0.311139 -0.469476,-1.522343 -1.353266,-2.822222 -0.851535,-1.252439 -1.54844,-2.515286 -1.548679,-2.806328 -4.58e-4,-0.539552 4.220585,-3.880555 4.902699,-3.880555 0.206295,0 0.479916,0.417696 0.608048,0.928214 0.167753,0.668378 0.07088,1.018921 -0.346057,1.252251 -0.670702,0.375344 -0.796982,1.51191 -0.138051,1.24251 0.242535,-0.09916 0.699199,-0.284362 1.014809,-0.411562 0.421237,-0.169772 0.637511,0.02243 0.813279,0.722739 0.134323,0.535187 0.07599,1.117462 -0.132863,1.326319 -0.20477,0.204768 -0.372308,0.578681 -0.372308,0.830917 0,0.755247 1.097305,0.519588 1.971174,-0.423333 1.032083,-1.113637 1.688525,-1.11811 2.191166,-0.01493 0.349642,0.767377 0.276719,0.959942 -0.634562,1.675694 -0.566279,0.444776 -1.857897,1.562746 -2.87026,2.484378 -1.012365,0.921632 -1.976445,1.675694 -2.142403,1.675694 -0.165957,0 -0.445312,-0.357187 -0.620788,-0.79375 -0.292976,-0.728884 -0.321083,-0.736091 -0.343937,-0.08819 -0.01369,0.388055 -1.055627,1.802077 -2.315417,3.142265 -1.259791,1.340192 -2.290529,2.570505 -2.290529,2.734028 0,0.163526 -0.15875,0.297317 -0.352777,0.297317 -0.194028,0 -0.352778,-0.223103 -0.352778,-0.49579 z m 112.11915,-1.444487 c -0.22102,-0.48507 -0.59623,-0.881945 -0.83381,-0.881945 -0.23759,0 -0.7149,-0.436562 -1.0607,-0.970139 -0.34581,-0.533576 -0.91969,-1.226883 -1.2753,-1.540686 -0.73429,-0.647957 -0.82731,-1.016952 -0.25636,-1.016952 0.21461,0 0.70238,-0.396875 1.08394,-0.881945 0.38156,-0.485069 0.92034,-0.881944 1.1973,-0.881944 0.27696,0 0.50356,-0.150571 0.50356,-0.334602 0,-0.184031 0.40071,-0.766971 0.89046,-1.295422 0.48975,-0.528451 0.98596,-1.341341 1.10269,-1.806422 0.20705,-0.824957 0.2499,-0.806841 1.75538,0.742074 1.66828,1.716432 1.81089,1.988816 1.04125,1.988816 -0.27604,0 -1.24252,0.866914 -2.14773,1.926476 -1.39541,1.633338 -1.61164,2.082198 -1.42106,2.94988 0.13329,0.606851 0.5767,1.183749 1.08939,1.417348 0.9929,0.452398 1.11312,0.943786 0.3066,1.253275 -1.03763,0.398176 -1.57226,0.217459 -1.97561,-0.667812 z m -5.09991,-5.291667 c -0.11168,-0.291041 -0.38451,-0.535218 -0.60629,-0.542615 -0.5086,-0.01696 -4.10739,-3.351892 -4.10739,-3.806237 0,-0.185438 0.39687,-0.436769 0.88194,-0.558514 0.48507,-0.121744 0.88349,-0.416767 0.88537,-0.655605 0.002,-0.238838 0.55751,-1.131279 1.23472,-1.983203 0.67722,-0.851924 1.2313,-1.844111 1.2313,-2.204861 0,-0.36075 0.0898,-0.655909 0.19958,-0.655909 0.46379,0 1.81309,0.882818 2.77781,1.817452 0.77046,0.746439 0.88807,1.00477 0.45744,1.00477 -0.31882,0 -0.86489,0.415826 -1.2135,0.924057 -0.3486,0.50823 -0.97486,1.265525 -1.39168,1.682877 -0.41682,0.417352 -0.81369,1.095662 -0.88194,1.507357 -0.13396,0.808056 0.93478,2.235709 1.67365,2.235709 0.78829,0 0.94465,0.732868 0.26605,1.246975 -0.84489,0.640092 -1.15778,0.637367 -1.40706,-0.01225 z m -6.91854,-4.96428 c -0.53358,-0.28947 -0.97014,-0.679989 -0.97014,-0.867819 0,-0.187832 -0.23813,-0.341512 -0.52917,-0.341512 -0.29104,0 -0.52917,-0.238125 -0.52917,-0.529166 0,-0.291042 0.24311,-0.529167 0.54024,-0.529167 0.29714,0 0.64048,-0.277812 0.763,-0.617361 0.12252,-0.339548 0.73461,-1.411111 1.3602,-2.38125 0.62559,-0.970139 1.24286,-2.112957 1.37171,-2.539595 0.2556,-0.846309 0.5465,-0.797274 2.57721,0.434425 1.32453,0.803381 1.44221,1.21254 0.42521,1.478491 -0.44321,0.115901 -0.802,0.581496 -0.92604,1.201695 -0.11137,0.556866 -0.3414,1.012484 -0.51118,1.012484 -0.16977,0 -0.30868,0.238125 -0.30868,0.529167 0,0.291041 -0.14123,0.529166 -0.31384,0.529166 -0.17261,0 -0.52477,0.714375 -0.78257,1.5875 -0.50986,1.726771 -0.71106,1.822687 -2.16678,1.032942 z M 78.560286,25.604679 c 0.301277,0.326149 0.758348,0.871324 0.758348,1.119601 -1.548068,2.103337 -4.777867,3.410078 -7.164571,3.41775 -1.684909,-0.01617 -2.077025,-0.444255 -2.608922,-0.979992 -0.500264,-0.503877 -0.9941,-1.0589 -1.100007,-2.722155 -0.253177,-3.245541 1.734637,-5.763901 4.876278,-6.507441 0.574289,-0.126558 1.37256,-0.378429 1.737808,0.304045 0.444885,0.831273 -0.08867,1.544107 -1.650859,2.205541 -1.433601,0.606993 -2.086391,2.2319 -1.454122,3.619575 0.35184,0.772211 0.653807,0.926394 1.814319,0.926394 1.19133,0 1.35413,-0.08909 1.128204,-0.617361 -0.516967,-1.20881 -0.564639,-2.449863 -0.140747,-2.748547 0.273464,-0.192689 0.932605,-1.040606 1.976432,0.09955 0.99346,0.985959 1.522909,1.552936 1.827839,1.883039 z m 8.77753,-9.439327 c 3.610513,3.154423 1.691922,11.419488 -6.441519,6.917207 -6.044101,-6.761646 3.238388,-10.061077 6.441519,-6.917207 z m -2.164888,1.863069 c -3.112415,-1.468523 -4.293186,2.041123 -2.359586,2.835574 3.283551,1.349101 3.678676,-2.213191 2.359586,-2.835574 z m 62.866732,10.751371 c -1.16378,-1.359199 -1.34047,-2.173569 -1.34047,-6.178325 0,-4.517851 0.15241,-4.764859 1.9736,-3.198623 0.56376,0.484833 1.145,0.881708 1.29165,0.881945 0.14665,2.36e-4 0.16147,1.368702 0.0329,3.041034 l -0.23372,3.040604 0.8219,-0.439871 c 1.2994,-0.695409 2.81643,-2.546961 2.81643,-3.437463 v -0.813885 l 1.14653,0.803119 c 0.63059,0.441715 1.21538,0.846048 1.29953,0.898518 0.18467,0.115143 -2.68144,2.905596 -2.98437,2.905596 -0.11704,0 -0.61354,0.47625 -1.10333,1.058334 -0.48979,0.582083 -1.09755,1.058333 -1.35059,1.058333 -0.25303,0 -0.55144,0.238125 -0.66312,0.529166 -0.27896,0.726952 -1.01199,0.663188 -1.70696,-0.148482 z m -7.48379,-4.078618 c -0.69576,-0.67567 -1.26501,-1.465173 -1.26501,-1.754452 0,-0.65052 -1.46735,-3.719836 -1.77835,-3.719836 -0.25989,0 -1.04388,2.456699 -1.04388,3.271103 0,0.458037 -0.19398,0.483876 -1.23472,0.164465 -1.451,-0.445325 -1.51205,-0.852716 -0.42537,-2.838511 1.08271,-1.978557 1.61256,-3.861678 1.39976,-4.974855 -0.10519,-0.550289 -0.015,-0.913868 0.22677,-0.913868 0.88162,0 3.16921,1.880845 3.57089,2.935979 1.72601,4.533813 2.37076,4.973716 2.72204,1.8572 0.19488,-1.728979 0.56261,-1.95126 1.94751,-1.177207 0.43393,0.242534 0.84845,0.474002 0.92115,0.514372 0.0727,0.04037 -0.36385,1.101929 -0.97013,2.359021 -0.60629,1.257092 -1.10234,2.520885 -1.10234,2.808428 0,0.61736 -1.13067,2.691199 -1.46902,2.69442 -0.12886,0.0012 -0.80355,-0.55059 -1.4993,-1.226259 z m -10.61362,-2.877639 c -1.33589,-0.5182 -4.15956,-1.103463 -5.59552,-1.159784 -0.56196,-0.02204 -0.62183,-0.211168 -0.41532,-1.311998 0.26949,-1.436495 -0.10056,-1.874401 -1.59153,-1.883354 -1.11504,-0.0067 -1.74625,0.590677 -1.74625,1.652654 0,0.710089 -0.17443,0.811389 -1.3972,0.811389 -0.76846,0 -1.59836,-0.215346 -1.84423,-0.478547 -0.33782,-0.361635 -0.74668,-0.39581 -1.67356,-0.139886 -0.67459,0.186264 -2.21349,0.275816 -3.41978,0.199005 -1.80107,-0.114684 -2.32225,-0.294681 -2.91472,-1.006642 -0.55504,-0.666985 -0.72419,-0.733843 -0.73321,-0.289821 -0.0217,1.068119 -2.30862,1.801722 -5.16669,1.657396 -1.43091,-0.07226 -2.64578,9.53e-4 -2.69969,0.162704 -0.0539,0.161745 -0.808993,0.376551 -1.677945,0.477345 -0.868955,0.100795 -2.178441,0.408054 -2.909972,0.682799 -1.844555,0.692769 -4.022118,0.639418 -4.809134,-0.117826 -0.352897,-0.339548 -0.751046,-1.331736 -0.88477,-2.204861 -0.133727,-0.873125 -0.507785,-2.33359 -0.83124,-3.245479 -0.323455,-0.911888 -0.474112,-1.771967 -0.334793,-1.911287 0.139323,-0.13932 1.111515,-0.324478 2.160429,-0.411462 l 1.907124,-0.158153 0.0047,1.363885 c 0.0091,2.650786 0.429155,4.000179 1.31445,4.222374 1.012617,0.254147 1.568613,-0.05642 1.568613,-0.876187 0,-0.937314 -1.116958,-4.06332 -1.555556,-4.353509 -0.277192,-0.183397 -0.275375,-0.4299 0.0065,-0.881944 0.288403,-0.46251 0.844705,-0.627404 2.116666,-0.627404 h 1.72544 l 0.376534,1.763889 c 0.207091,0.970139 0.475608,2.002014 0.596706,2.293055 0.121094,0.291042 0.269607,0.837732 0.330031,1.214868 0.09674,0.603831 0.362447,0.67401 2.225517,0.587787 1.16361,-0.05385 2.18445,-0.166626 2.26852,-0.250608 0.27743,-0.277104 -0.69413,-1.016488 -1.84411,-1.403421 -2.21722,-0.746029 -2.548289,-3.682951 -0.54479,-4.832803 0.67264,-0.386035 1.81517,-0.607489 3.13417,-0.607489 1.74303,0 2.13877,0.117912 2.46944,0.735769 0.21657,0.404674 0.34122,0.761861 0.27699,0.79375 -0.0642,0.03189 -0.47181,0.256418 -0.90574,0.498953 -0.43393,0.242535 -1.06893,0.453922 -1.41111,0.46975 -0.3822,0.01768 -0.17995,0.222158 0.52438,0.530178 0.63059,0.275771 1.14653,0.659695 1.14653,0.853167 0,0.193471 0.24153,0.351766 0.53673,0.351766 0.2952,0 0.70961,0.379434 0.92091,0.843186 0.42774,0.9388 1.3264,1.473847 3.04028,1.810132 0.98348,0.192973 1.14652,0.12555 1.14652,-0.474111 0,-0.455647 -0.35943,-0.824373 -1.03221,-1.058905 -1.11244,-0.387799 -1.96067,-1.455201 -2.32036,-2.919924 -0.33438,-1.361624 1.46144,-2.786489 3.51193,-2.786489 2.72572,0 3.7212,0.342105 3.7212,1.278819 0,0.573153 -0.2016,0.837848 -0.63813,0.837848 -0.35097,0 -0.94628,0.229499 -1.32292,0.509998 -0.65557,0.488238 -0.63541,0.527501 0.47246,0.920192 1.3535,0.479754 2.35139,2.128596 2.03974,3.370305 -0.28858,1.149814 0.5918,1.122231 1.21274,-0.038 0.2596,-0.485069 0.60393,-0.881944 0.76517,-0.881944 0.16124,0 0.29316,-0.201274 0.29316,-0.447275 0,-0.246001 0.39688,-1.031328 0.88195,-1.745173 0.48507,-0.713843 0.88194,-1.62382 0.88194,-2.022169 0,-0.647477 0.21752,-0.724272 2.05143,-0.724272 h 2.05143 l 0.77436,2.204861 c 0.4259,1.212674 0.77276,2.570531 0.77079,3.01746 -0.003,0.749613 1.65412,3.244311 2.15545,3.244335 0.26303,1.3e-5 0.90081,-2.392755 1.22241,-4.5861 0.26425,-1.802288 0.57057,-2.10365 2.14597,-2.111265 2.27473,-0.01099 2.62639,0.467897 1.67851,2.285784 -0.30297,0.581055 -0.72003,2.366993 -0.9268,3.96875 -0.42349,3.280663 -0.57042,3.385197 -3.28049,2.333935 z"
         id="path1679"
         sodipodi:nodetypes="csscscssssscscscssccscssssssssssssssssssssssssscssssssssssscsssssssssssssssssssssssssssssscsssssscsssssssssssssssscsssssssscsscssccsssssssssssssssssssssssssssssssssssssssscsssssssssssssssssssssssssssssscccsccccsssscscccsssssscccccsccccsccsssscsssccsssssscccscccssccsccssssscscscssssccsssccssscccssssssscssssccsccssssscssssssssssssssssssssssssssssssssccccccsssssccccsccccssssssssscssssssssssssscssssssssssssssssssssssssssssssssssssssscssscsssssssscsssssssscsssssssscssssssssssssssscssssssscsssssssssssssssssssscccsccsscccccsccccccccssssssssssscssssssscssssssssssscsscccssssccsssssssscsssssscsssssssccssssssssssssssssssccccccssssssssssssccsssscssssssssssssssssssssssssssssssssssssssssscssssssssssssssssssssssssssssaccsccsssssscsacccssssccsscsssssssssssssssssssssssssssssssssssssssssssscsssssscsssscssssssssssssssssssssssssssscscssssssssss" /></g></g></svg>
